<svg xmlns="http://www.w3.org/2000/svg" viewBox="0 0 512 512" role="img" aria-labelledby="title">
  <title id="title">TFS — The Franks Standard</title>
  <rect width="512" height="512" fill="#000000"/>
  <g fill="none" stroke="#E53935" stroke-width="14" stroke-linejoin="miter">
    <polygon points="256,70 400,180 112,180"/>
    <rect x="120" y="180" width="272" height="28"/>
  </g>
  <g fill="#E53935">
    <!-- columns -->
    <rect x="148" y="220" width="12" height="150"/>
    <rect x="168" y="220" width="12" height="150"/>
    <rect x="188" y="220" width="12" height="150"/>
    <rect x="236" y="220" width="12" height="150"/>
    <rect x="256" y="220" width="12" height="150"/>
    <rect x="276" y="220" width="12" height="150"/>
    <rect x="324" y="220" width="12" height="150"/>
    <rect x="344" y="220" width="12" height="150"/>
    <rect x="364" y="220" width="12" height="150"/>
    <!-- steps -->
    <rect x="130" y="370" width="252" height="14"/>
    <rect x="118" y="390" width="276" height="14"/>
    <rect x="106" y="410" width="300" height="14"/>
    <rect x="94" y="430" width="324" height="14"/>
  </g>
  <text x="256" y="165" text-anchor="middle" font-family="Georgia, 'Times New Roman', serif" font-size="48" font-weight="700" fill="#E53935" letter-spacing="6">TFS</text>
</svg>
