<svg xmlns="http://www.w3.org/2000/svg" width="560" height="420" viewBox="0 0 560 420" fill="none" aria-hidden="true">
  <defs>
    <linearGradient id="a" x1="80" y1="40" x2="480" y2="380" gradientUnits="userSpaceOnUse">
      <stop stop-color="#C9A84C" stop-opacity="0.35"/>
      <stop offset="0.5" stop-color="#1A1A2E" stop-opacity="0.9"/>
      <stop offset="1" stop-color="#00e0ff" stop-opacity="0.25"/>
    </linearGradient>
    <filter id="g" x="-20%" y="-20%" width="140%" height="140%">
      <feGaussianBlur in="SourceAlpha" stdDeviation="12" result="b"/>
      <feColorMatrix in="b" type="matrix" values="0 0 0 0 0 0 0 0 0 0 0 0 0 0 0 0 0 0 0.4 0"/>
    </filter>
  </defs>

  <rect width="560" height="420" rx="20" fill="#12121f"/>
  <rect x="24" y="24" width="512" height="372" rx="16" stroke="url(#a)" stroke-width="1.2"/>

  <g opacity="0.92">
    <rect x="64" y="64" width="200" height="40" rx="6" fill="#2a2a3d"/>
    <rect x="64" y="120" width="432" height="8" rx="2" fill="#3a3640"/>
    <rect x="64" y="140" width="360" height="8" rx="2" fill="#2e2a35"/>
    <rect x="64" y="168" width="300" height="8" rx="2" fill="#2e2a35"/>
  </g>

  <!-- Intentional fallback tile -->
  <g filter="url(#g)" opacity="0.95">
    <rect x="308" y="196" width="184" height="112" rx="14" fill="#12121f" stroke="url(#a)" stroke-width="1.2"/>
  </g>
  <g opacity="0.92">
    <rect x="320" y="208" width="160" height="16" rx="6" fill="#2a2a3d"/>
    <rect x="320" y="236" width="148" height="8" rx="3" fill="#3a3640"/>
    <rect x="320" y="252" width="120" height="8" rx="3" fill="#2e2a35"/>
    <rect x="320" y="276" width="90" height="8" rx="3" fill="#2e2a35"/>
    <text x="320" y="304" font-family="ui-sans-serif,system-ui,sans-serif" font-size="9" fill="#9d9484">Proof required " Image unavailable</text>
  </g>
</svg>

