<svg xmlns="http://www.w3.org/2000/svg" width="800" height="520" viewBox="0 0 800 520" fill="none" role="img" aria-label="Sports cards on a neon floor">
  <defs>
    <linearGradient id="bg" x1="0" y1="0" x2="1" y2="1">
      <stop offset="0" stop-color="#0a0518"/>
      <stop offset="0.55" stop-color="#120820"/>
      <stop offset="1" stop-color="#061b22"/>
    </linearGradient>
    <linearGradient id="edge" x1="0" y1="0" x2="1" y2="1">
      <stop offset="0" stop-color="#ffd84d"/>
      <stop offset="0.5" stop-color="#00e0ff"/>
      <stop offset="1" stop-color="#ff2d7a"/>
    </linearGradient>
    <filter id="glow" x="-30%" y="-30%" width="160%" height="160%">
      <feGaussianBlur stdDeviation="14" result="b"/>
      <feColorMatrix in="b" type="matrix" values="0 0 0 0 0  0 0 0 0 0.8  0 0 0 0 1  0 0 0 0.35 0" result="c"/>
      <feMerge>
        <feMergeNode in="c"/>
        <feMergeNode in="SourceGraphic"/>
      </feMerge>
    </filter>
  </defs>
  <rect width="800" height="520" rx="28" fill="url(#bg)"/>
  <rect x="18" y="18" width="764" height="484" rx="22" fill="none" stroke="url(#edge)" stroke-width="2" opacity="0.8"/>

  <!-- Card slabs -->
  <g filter="url(#glow)" opacity="0.95">
    <rect x="120" y="120" width="210" height="280" rx="18" fill="#111" stroke="url(#edge)" stroke-width="2" opacity="0.9"/>
    <rect x="150" y="150" width="150" height="90" rx="10" fill="#1f1f30" opacity="0.9"/>
    <rect x="150" y="262" width="150" height="10" rx="5" fill="#2e2a35"/>
    <rect x="150" y="286" width="120" height="10" rx="5" fill="#2e2a35"/>
    <rect x="150" y="310" width="140" height="10" rx="5" fill="#2e2a35"/>
  </g>

  <g opacity="0.95">
    <rect x="350" y="90" width="240" height="320" rx="20" fill="#0f0c1c" stroke="rgba(0,224,255,0.35)" stroke-width="2"/>
    <rect x="380" y="120" width="180" height="110" rx="12" fill="#1a1a2e"/>
    <rect x="380" y="255" width="180" height="12" rx="6" fill="#3a3640"/>
    <rect x="380" y="283" width="150" height="12" rx="6" fill="#2e2a35"/>
    <rect x="380" y="311" width="165" height="12" rx="6" fill="#2e2a35"/>
    <circle cx="520" cy="360" r="22" fill="rgba(255,216,77,0.18)" stroke="rgba(255,216,77,0.6)" stroke-width="2"/>
    <path d="M510 360l8 8 16-18" stroke="#ffd84d" stroke-width="3" stroke-linecap="round" stroke-linejoin="round"/>
  </g>

  <g opacity="0.9">
    <rect x="610" y="160" width="120" height="160" rx="18" fill="#0f0c1c" stroke="rgba(255,45,122,0.28)" stroke-width="2"/>
    <rect x="630" y="182" width="80" height="60" rx="10" fill="#1a1a2e"/>
    <rect x="630" y="254" width="80" height="8" rx="4" fill="#2e2a35"/>
    <rect x="630" y="272" width="62" height="8" rx="4" fill="#2e2a35"/>
  </g>
</svg>

